<?xml version="1.0" encoding="UTF-8"?>
<svg id="Layer_2" data-name="Layer 2" xmlns="http://www.w3.org/2000/svg" viewBox="0 0 1533.31 1302.75">
  <defs>
    <style>
      .cls-1 {
        fill: #fff;
      }

      .cls-2 {
        opacity: .5;
      }

      .cls-3 {
        fill: #56130f;
      }

      .cls-4 {
        fill: #81b178;
      }

      .cls-5 {
        fill: #eb8f7e;
      }

      .cls-6 {
        fill: #a6d09d;
      }

      .cls-7 {
        fill: #152949;
      }

      .cls-8 {
        fill: #5692c1;
      }

      .cls-9 {
        fill: #ef8f6a;
      }

      .cls-10 {
        fill: #e27452;
      }

      .cls-11 {
        fill: #eb9235;
      }

      .cls-12 {
        fill: #f9ddc2;
      }

      .cls-13 {
        fill: #0b1a3b;
      }

      .cls-14 {
        fill: #eeeced;
      }

      .cls-15 {
        fill: #f6c9a4;
      }

      .cls-16 {
        fill: #df8531;
      }

      .cls-17 {
        fill: #b0243b;
      }

      .cls-18 {
        fill: #ee7c47;
      }

      .cls-19 {
        fill: #c62e45;
      }

      .cls-20 {
        fill: #163560;
      }

      .cls-21 {
        fill: #f3ad4c;
      }

      .cls-22 {
        fill: #6fa9c9;
      }
    </style>
  </defs>
  <g id="_лой_1" data-name="‘лой_1">
    <g>
      <path class="cls-1" d="m1533.31,35.94v1264.26c-562.91-.09-1368.29-.55-1405.27-2.53-.86-.04-1.3-.09-1.32-.14l-.18-.39s-.17-.39-.17-.58c-.7-1.55-279.64-437.9,154.01-741.65,169.68-118.86,57.4-139.83,192.33-272.14,155.06-152.04,256.27-41.33,428.7-110.28,30.46-12.17,61.03-31.76,91.64-61.82,21.94-21.53,46.4-39.49,72.71-54.23,5.96-3.34,12.01-6.52,18.16-9.53,54.41-26.72,115.61-40.84,178.03-45.33,89.55-6.4,184.33,6.91,271.36,34.36Z"/>
      <g class="cls-2">
        <g class="cls-2">
          <path class="cls-21" d="m569.53,608.17s-11.45-95.88-60.57-153.09c-6.53-7.6-19.02-2.76-18.81,7.26,0,.17,0,.34.01.51.64,17.1,55.64,89.25,79.37,145.33Z"/>
        </g>
        <g class="cls-2">
          <path class="cls-21" d="m575.5,635.61s-48.96-119.84-132.57-172.83c-5.1-3.23-12-2.06-15.42,2.92-2.23,3.24-3.23,8.3-.73,16.21,6.66,21.08,99.92,92.03,148.72,153.71Z"/>
        </g>
      </g>
      <g>
        <path class="cls-12" d="m1185.29,605.14s-43.83-26.99-21.48-60.23c0,0,17.62-20.25,35.79-24.89,0,0-11.68,50.46-2.15,52.06,9.52,1.59,8.96-57.17,8.96-57.17,0,0,48.21-20.78,66.68-18.22,0,0-31.37,48.45-21.75,47.65s44.61-49.7,44.61-49.7c0,0,48.84-6.97,55.43,22.07,6.59,29.04-6.57,42.88-13.82,44.38-7.25,1.5-53.3-1.01-52.35,5.03.95,6.03,31.67,16.89,49.24,12.23,0,0-21.1,46.48-46.13,43.04-25.03-3.43-32.16-19.31-47.67-21.15-15.51-1.84-27.05,1.88-19.44,6.39,7.61,4.51,34.05,2.78,46.17,13.99,12.12,11.2,22.02,18.21-1.51,22.03-23.53,3.82-65.29-.9-72.93-19.2l-7.63-18.3Z"/>
        <g>
          <path class="cls-12" d="m1328.87,524.78s-127.33,35.49-143.58,80.37c0,0-.24,20.37-13.77,43.18l-.37,8.98s14.43-29.97,21.78-33.86c0,0-26.49-40.65,135.94-98.67Z"/>
          <path class="cls-4" d="m1171.52,648.33s-20.59,28.62-11.03,64.9l5.04-1.13s-3.21-39.65,7.75-59.08c10.96-19.42-1.76-4.69-1.76-4.69Z"/>
        </g>
      </g>
      <g>
        <path class="cls-12" d="m1007.92,604.07s-73.61,6.51-76.37-50.93c0,0,2.93-38.42,19.87-59.35,0,0,29.82,68.12,42.15,61.78,12.33-6.33-38.7-73.51-38.7-73.51,0,0,37.69-65.26,61.16-78.15,0,0,5.42,82.69,15.81,73.51,10.39-9.17,8.75-95.48,8.75-95.48,0,0,50.26-49.9,82.75-22.11,32.49,27.79,29.2,55.01,22.14,62.95-7.07,7.94-62.24,44.54-55.97,50.68,6.27,6.13,50.95-7.7,67.18-28.14,0,0,15.55,71.61-16.21,89.12-31.76,17.51-53.59,5.34-73.03,16.52-19.43,11.18-29.54,25.35-16.91,24.03,12.62-1.33,41.59-25.99,65.15-23.48,23.56,2.5,40.97,2.08,17.15,26.66-23.82,24.58-75.96,54.94-100.43,40.42l-24.48-14.52Z"/>
        <g>
          <path class="cls-12" d="m1104.33,388.42s-116.19,150.04-96.41,215.64c0,0,17.18,23.66,21.17,61.53l7.27,10.65s-9.09-46.88-3.96-57.66c0,0-65.36-24.1,71.93-230.16Z"/>
          <path class="cls-6" d="m1029.09,665.6s.83,50.62,42.95,84.19l4.83-5.63s-37.69-42.91-41.73-74.67c-4.04-31.76-6.05-3.89-6.05-3.89Z"/>
        </g>
      </g>
      <g>
        <g>
          <path class="cls-15" d="m316.19,1169.97s-20.62-24.05-1.27-39.33c0,0,14.13-8.55,25.66-7.86,0,0-16.33,27.38-11.05,30.1,5.28,2.72,15.99-31.82,15.99-31.82,0,0,32.16-3.12,42.51,1.86,0,0-27.49,22.5-21.7,23.84,5.79,1.34,35.49-20.74,35.49-20.74,0,0,29.93,5.09,28.34,23.35-1.6,18.26-11.91,23.9-16.44,23.41-4.53-.49-31.05-10.61-31.63-6.89-.58,3.71,15.38,15.85,26.56,16.42,0,0-21.1,23.27-35.13,16.56-14.02-6.72-15.22-17.36-23.96-21.36-8.74-3.99-16.21-3.98-12.6.09,3.61,4.07,19.43,8.03,24.43,16.87,5,8.84,9.48,14.81-5.03,12.62-14.51-2.18-38.1-12.8-39.13-24.96l-1.04-12.16Z"/>
          <g>
            <path class="cls-15" d="m415.44,1149.85s-81.3-3.13-99.25,20.12c0,0-3.97,11.89-16.19,22.72l-1.9,5.19s14.09-14.85,19.13-15.75c0,0-7.88-28.8,98.21-32.28Z"/>
            <path class="cls-15" d="m300,1192.69s-17.45,12.9-18.66,35.96l3.17.28s5.57-23.84,15.65-33.17c10.07-9.32-.15-3.08-.15-3.08Z"/>
          </g>
        </g>
        <g>
          <path class="cls-12" d="m244.1,1139.72s32.8-18.37,17.49-43.29c0,0-12.25-15.31-25.36-19.24,0,0,7,37.17,0,38.05-7,.88-4.81-41.98-4.81-41.98,0,0-34.55-16.62-48.1-15.31,0,0,21.43,36.3,14.43,35.42-7-.87-31.05-37.61-31.05-37.61,0,0-35.42-6.56-41.11,14.43-5.69,20.99,3.5,31.49,8.75,32.8,5.25,1.31,38.92.87,38.05,5.25-.87,4.37-23.62,11.37-36.3,7.43,0,0,13.99,34.55,32.36,32.8,18.37-1.75,24.05-13.12,35.42-13.99,11.37-.88,19.68,2.19,13.99,5.25-5.69,3.06-24.93,1-34.11,8.81-9.18,7.81-16.62,12.62.44,16.12,17.06,3.5,47.67,1.31,53.79-11.81l6.12-13.12Z"/>
          <g>
            <path class="cls-12" d="m141.77,1076.74s91.84,29.74,102.33,62.97c0,0-.44,14.87,8.75,31.92v6.56s-9.62-22.3-14.87-25.37c0,0,20.55-28.86-96.21-76.09Z"/>
            <path class="cls-12" d="m252.85,1171.64s14.16,21.51,6.09,47.69l-3.64-.98s3.54-28.84-3.87-43.34c-7.41-14.5,1.43-3.37,1.43-3.37Z"/>
          </g>
        </g>
        <g>
          <path class="cls-12" d="m296.28,1114.38s-43.24-24.21-23.06-57.07c0,0,16.14-20.18,33.44-25.37,0,0-9.22,49,0,50.15,9.22,1.15,6.34-55.34,6.34-55.34,0,0,45.54-21.91,63.41-20.18,0,0-28.25,47.85-19.02,46.69,9.22-1.15,40.93-49.58,40.93-49.58,0,0,46.69-8.65,54.19,19.02,7.49,27.67-4.61,41.51-11.53,43.24-6.92,1.73-51.31,1.15-50.15,6.92,1.15,5.76,31.13,14.99,47.85,9.8,0,0-18.45,45.54-42.66,43.24-24.21-2.31-31.71-17.29-46.69-18.45-14.99-1.15-25.94,2.88-18.45,6.92,7.49,4.04,32.86,1.32,44.96,11.61,12.11,10.29,21.91,16.63-.58,21.25-22.48,4.61-62.83,1.73-70.91-15.56l-8.07-17.29Z"/>
          <g>
            <path class="cls-12" d="m431.18,1031.37s-121.06,39.2-134.89,83.01c0,0,.58,19.6-11.53,42.08v8.65s12.68-29.4,19.6-33.44c0,0-27.09-38.05,126.82-100.31Z"/>
            <path class="cls-12" d="m284.75,1156.47s-18.67,28.35-8.03,62.86l4.8-1.29s-4.66-38.01,5.11-57.13c9.77-19.12-1.88-4.44-1.88-4.44Z"/>
          </g>
        </g>
        <path class="cls-12" d="m294.82,1294.16c46.77,0,84.69-37.92,84.69-84.69h-169.38c0,46.77,37.92,84.69,84.69,84.69Z"/>
        <path class="cls-12" d="m380.69,1298.47h-171.72c0-5.77,4.68-10.45,10.45-10.45h150.82c5.77,0,10.45,4.68,10.45,10.45h0Z"/>
        <rect class="cls-15" x="207.35" y="1209.47" width="174.09" height="2.6"/>
      </g>
      <path class="cls-16" d="m872.52,819.71l-37.9,450.62s-3.97,27.31,16.35,27.36c33.41.08,166.28,0,166.28,0,0,0-25.14-5.69-24.84-18.48.36-15.08,44.29-463.77,44.29-463.77l-164.18,4.26Z"/>
      <path class="cls-21" d="m1029.75,1289.51c-6.57.02-135.21.24-167.74-.18-14.18-.18-16.66-12.61-16.78-20.65-.06-3.86.43-6.71.43-6.71l.98-11.71,2.51-29.85,2.22-26.37,2.85-33.89,2.4-28.6,26.93-320.2,164.19-4.26s-18.5,187.77-31.59,324.46c-1.46,15.23-2.85,29.83-4.14,43.46-.42,4.35-.82,8.61-1.21,12.75-1.21,12.93-2.32,24.81-3.29,35.29-.51,5.53-.98,10.66-1.4,15.37-1.67,18.43-2.65,30.2-2.66,32.44,0,1.31.1,2.52.32,3.65,2.7,14.36,23.52,15.01,25.98,15.01Z"/>
      <polygon class="cls-21" points="473.78 574.31 566.1 945.11 578.74 995.89 621.73 1168.6 1420.51 1168.6 1262.04 574.31 473.78 574.31"/>
      <polygon class="cls-16" points="473.78 574.31 460.99 578.57 604.72 1181.51 621.73 1168.61 473.78 574.31"/>
      <polygon class="cls-11" points="604.72 1181.51 1398.59 1181.51 1420.51 1168.61 621.73 1168.61 604.72 1181.51"/>
      <rect class="cls-21" x="883.5" y="1289.51" width="171.88" height="8.17" transform="translate(1938.89 2587.18) rotate(180)"/>
      <polygon class="cls-21" points="1011.69 1181.5 1010.81 1187.75 849.16 1220.4 851.38 1194.03 852.43 1181.5 1011.69 1181.5"/>
      <g class="cls-2">
        <path class="cls-11" d="m1029.75,1289.51c-6.57.02-135.21.24-167.74-.18-14.18-.18-16.66-12.61-16.78-20.65l160.88-30.27c-1.67,18.43-2.65,30.2-2.66,32.44,0,1.31.1,2.52.32,3.65,2.7,14.36,23.52,15.01,25.98,15.01Z"/>
      </g>
      <polygon class="cls-11" points="473.78 574.31 1262.04 574.31 1389.93 1051.93 592.69 1051.93 473.78 574.31"/>
      <polygon class="cls-13" points="1352.76 1031.24 614.71 1031.24 588.33 926.17 578.13 885.52 573.97 868.94 546.86 760.97 545.46 755.35 531.13 698.28 524.72 672.74 519.25 650.95 514.79 633.19 506.43 599.9 1233.84 599.9 1243.02 633.19 1247.92 650.95 1253.92 672.74 1260.96 698.28 1307.34 866.51 1307.34 866.52 1311.27 880.77 1313.1 887.39 1345.12 1003.53 1352.76 1031.24"/>
      <polygon class="cls-12" points="1060.24 1012.2 680.5 1012.2 659.64 909.94 651.56 877.78 648.27 864.67 626.83 779.25 625.72 774.81 614.38 729.66 609.31 709.46 604.99 692.22 601.46 678.17 594.84 651.83 966.42 651.83 1060.24 1012.2"/>
      <polygon class="cls-11" points="892.17 1051.93 622 1170 592.69 1051.93 892.17 1051.93"/>
      <g>
        <path class="cls-19" d="m1473.97,903.05l11.88,52.96c1.89,8.44-4.49,15.27-14.27,15.27h-285.33c-9.77,0-19.23-6.83-21.12-15.27l-11.88-52.96c-.07-.33-.13-.64-.17-.97-1.23-7.99,5.04-14.3,14.44-14.3h285.32c9.4,0,18.5,6.32,20.86,14.3.11.33.19.64.26.97Z"/>
        <g>
          <g>
            <polygon class="cls-1" points="1186.89 947.4 1184.09 947.4 1176.7 914.45 1179.5 914.45 1186.89 947.4"/>
            <polygon class="cls-1" points="1206.18 928.05 1186.12 928.05 1184.03 918.73 1204.08 918.73 1206.18 928.05"/>
            <polygon class="cls-1" points="1215.52 941.42 1189.12 941.42 1187.03 932.09 1213.43 932.09 1215.52 941.42"/>
          </g>
          <g>
            <polygon class="cls-1" points="1251.03 947.4 1248.23 947.4 1240.84 914.45 1243.64 914.45 1251.03 947.4"/>
            <polygon class="cls-1" points="1255.32 928.05 1235.26 928.05 1233.17 918.73 1253.22 918.73 1255.32 928.05"/>
            <polygon class="cls-1" points="1261.49 941.42 1235.09 941.42 1233 932.09 1259.39 932.09 1261.49 941.42"/>
          </g>
          <g>
            <polygon class="cls-1" points="1315.17 947.4 1312.38 947.4 1304.98 914.45 1307.78 914.45 1315.17 947.4"/>
            <polygon class="cls-1" points="1304.45 928.05 1284.4 928.05 1282.3 918.73 1302.35 918.73 1304.45 928.05"/>
            <polygon class="cls-1" points="1307.45 941.42 1281.05 941.42 1278.96 932.09 1305.35 932.09 1307.45 941.42"/>
          </g>
          <g>
            <polygon class="cls-1" points="1356.22 917.12 1323.26 917.12 1322.64 914.32 1355.59 914.32 1356.22 917.12"/>
            <polygon class="cls-1" points="1337.45 919.74 1341.95 939.79 1332.63 939.79 1328.13 919.74 1337.45 919.74"/>
            <polygon class="cls-1" points="1350.82 919.74 1356.74 946.14 1347.42 946.14 1341.5 919.74 1350.82 919.74"/>
          </g>
          <g>
            <polygon class="cls-1" points="1408.08 932.33 1375.13 932.33 1374.5 929.53 1407.45 929.53 1408.08 932.33"/>
            <polygon class="cls-1" points="1386.17 920.9 1390.67 940.95 1381.34 940.95 1376.84 920.9 1386.17 920.9"/>
            <polygon class="cls-1" points="1398.82 917.73 1404.75 944.13 1395.42 944.13 1389.5 917.73 1398.82 917.73"/>
          </g>
          <g>
            <polygon class="cls-1" points="1459.98 947.66 1427.02 947.66 1426.39 944.86 1459.35 944.86 1459.98 947.66"/>
            <polygon class="cls-1" points="1435.09 921.95 1439.59 942 1430.26 942 1425.76 921.95 1435.09 921.95"/>
            <polygon class="cls-1" points="1447.03 915.6 1452.95 942 1443.63 942 1437.7 915.6 1447.03 915.6"/>
          </g>
        </g>
      </g>
      <polygon class="cls-3" points="1243.02 633.19 514.79 633.19 506.43 599.9 1233.84 599.9 1243.02 633.19"/>
      <g>
        <path class="cls-1" d="m551.69,616.84c.95,2.98-.94,5.42-4.22,5.44-3.28.02-6.7-2.38-7.65-5.36-.95-2.98.94-5.42,4.22-5.44,3.28-.02,6.7,2.38,7.65,5.36Z"/>
        <path class="cls-1" d="m576.25,616.67c.95,2.98-.94,5.42-4.22,5.44-3.28.02-6.7-2.38-7.65-5.36-.95-2.98.94-5.42,4.22-5.44,3.28-.02,6.7,2.38,7.65,5.36Z"/>
        <path class="cls-1" d="m600.8,616.5c.95,2.98-.94,5.42-4.22,5.44-3.28.02-6.7-2.38-7.65-5.36-.95-2.98.94-5.42,4.22-5.44,3.28-.02,6.7,2.38,7.65,5.36Z"/>
      </g>
      <path class="cls-19" d="m609.31,709.46s85.72.33,147.88,47.98c62.16,47.65,53.2,90.41,104.78,101.13,84.52,17.56,32.05-72.64,141.81-63.26l56.47,216.9h-379.74l-28.94-134.42-42.25-168.32Z"/>
      <path class="cls-1" d="m881.53,861.63c-5.81,0-12.35-.77-19.72-2.3-28.47-5.92-38.96-21.89-52.25-42.1-11.01-16.75-24.71-37.6-52.84-59.17-17.66-13.54-48.81-31.76-96.93-41.71-28.79-5.95-50.26-6.1-50.47-6.1v-1.56c.22,0,21.85.15,50.79,6.14,26.72,5.53,65.34,17.3,97.57,42,28.34,21.72,42.12,42.7,53.2,59.55,13.6,20.7,23.43,35.65,51.26,41.43,39.64,8.24,48.6-7.34,58.98-25.38,11.56-20.09,24.68-42.87,82.74-37.9l-.13,1.56c-57.08-4.88-69.92,17.43-81.25,37.12-5.25,9.13-10.21,17.74-19.01,23.07-5.93,3.58-13.09,5.36-21.91,5.36Z"/>
      <path class="cls-17" d="m629.33,788.71l21.79,86.83,29.38,136.66h379.74l-19.15-70.96s-56.21-31.33-132.44-4.02c-76.23,27.31-160.62,2.11-166.06-59.32-6.12-69.26-69.76-102.62-113.27-89.19Z"/>
      <path class="cls-1" d="m725.27,829.8c-21.83-33.75-62.08-50.71-95.71-40.33l-.46-1.5c34.29-10.58,75.29,6.66,97.49,40.98l-1.31.85Z"/>
      <g>
        <rect class="cls-1" x="854.97" y="852.4" width="12.4" height="12.4" transform="translate(92.78 -83.94) rotate(5.9)"/>
        <rect class="cls-1" x="867.51" y="753.81" width="2.06" height="212.33" transform="translate(-150.08 1535.5) rotate(-78.27)"/>
        <path class="cls-1" d="m761.05,838.02c.2-1.96,1.95-3.38,3.91-3.18,1.96.2,3.38,1.95,3.18,3.91-.2,1.96-1.95,3.38-3.91,3.18-1.96-.2-3.38-1.95-3.18-3.91Z"/>
        <path class="cls-1" d="m968.94,881.2c.2-1.96,1.95-3.38,3.91-3.18,1.96.2,3.38,1.95,3.18,3.91-.2,1.96-1.95,3.38-3.91,3.18-1.96-.2-3.38-1.95-3.18-3.91Z"/>
      </g>
      <g>
        <rect class="cls-1" x="708.91" y="725.57" width="12.4" height="12.4" transform="translate(696.81 -291.24) rotate(43.32)"/>
        <rect class="cls-1" x="712.75" y="680.38" width="2.06" height="99.51" transform="translate(-307.24 720.54) rotate(-45.11)"/>
        <path class="cls-1" d="m675.76,692.77c1.24-1.53,3.48-1.76,5.01-.52,1.53,1.24,1.76,3.48.52,5.01-1.24,1.53-3.48,1.76-5.01.52-1.53-1.24-1.76-3.48-.52-5.01Z"/>
        <path class="cls-1" d="m746.26,763c1.24-1.53,3.48-1.76,5.01-.52,1.53,1.24,1.76,3.48.52,5.01-1.24,1.53-3.48,1.76-5.01.52-1.53-1.24-1.76-3.48-.52-5.01Z"/>
      </g>
      <g>
        <rect class="cls-1" x="946.66" y="794.76" width="12.4" height="12.4" transform="translate(-156.78 1365.04) rotate(-67)"/>
        <rect class="cls-1" x="921.35" y="799.79" width="63.47" height="2.06" transform="translate(-171.71 1334.23) rotate(-65.41)"/>
        <path class="cls-1" d="m938.74,833.05c-1.86-.63-2.86-2.66-2.23-4.52.63-1.86,2.65-2.86,4.52-2.23,1.86.63,2.86,2.65,2.23,4.52-.63,1.86-2.66,2.86-4.52,2.23Z"/>
        <path class="cls-1" d="m965.14,775.34c-1.86-.63-2.86-2.66-2.23-4.52.63-1.86,2.66-2.86,4.52-2.23,1.86.63,2.86,2.65,2.23,4.52-.63,1.86-2.66,2.86-4.52,2.23Z"/>
      </g>
      <g>
        <path class="cls-14" d="m1016.68,671.85l19.3,79.77c.83,3.41-2.39,6.18-7.19,6.18h-198.53c-4.8,0-9.36-2.77-10.19-6.18l-19.3-79.77c-.83-3.41,2.39-6.18,7.19-6.18h198.53c4.8,0,9.36,2.77,10.19,6.18Z"/>
        <g>
          <g>
            <polygon class="cls-13" points="851.1 718.51 829.97 718.51 824.85 697.38 845.98 697.38 851.1 718.51"/>
            <polygon class="cls-13" points="864.22 729.07 843.09 729.07 837.97 707.94 859.1 707.94 864.22 729.07"/>
          </g>
          <g>
            <polygon class="cls-13" points="900.42 718.51 879.29 718.51 874.18 697.38 895.31 697.38 900.42 718.51"/>
            <g>
              <polygon class="cls-22" points="913.54 729.07 892.41 729.07 887.3 707.94 908.43 707.94 913.54 729.07"/>
              <path class="cls-13" d="m909.12,707.04h-22.94l2.77,11.46,2.78,11.47h22.93l-5.54-22.93Zm-1.37,1.8l4.67,19.33h-19.32l-2.34-9.67-2.34-9.66h19.33Z"/>
            </g>
          </g>
          <g>
            <polygon class="cls-22" points="949.75 718.51 928.62 718.51 923.51 697.38 944.64 697.38 949.75 718.51"/>
            <path class="cls-13" d="m950.86,719.36l-2.55-10.52-.21-.9-.22-.9h0s-.01,0-.01,0l-2.55-10.56h-22.93l5.55,22.94h22.93v-.05Zm-21.55-1.76l-4.68-19.32h19.33l2.12,8.75h0s.22.91.22.91l.21.9,2.12,8.76h-19.32Z"/>
            <polygon class="cls-22" points="962.87 729.07 941.74 729.07 936.63 707.94 957.76 707.94 962.87 729.07"/>
            <path class="cls-13" d="m958.44,707.04h-22.93l2.56,10.56.21.9.21.86v.05s2.57,10.56,2.57,10.56h22.93l-5.55-22.93Zm-18.14,12.32l-.21-.86-.22-.9-2.12-8.76h19.33l4.67,19.33h-19.32l-2.12-8.76v-.05Z"/>
            <polygon class="cls-13" points="950.87 719.37 938.42 719.37 935.44 707.03 947.88 707.03 950.87 719.37"/>
          </g>
          <g>
            <polygon class="cls-13" points="999.08 718.51 977.95 718.51 972.84 697.38 993.97 697.38 999.08 718.51"/>
            <polygon class="cls-13" points="1012.2 729.07 991.07 729.07 985.96 707.94 1007.09 707.94 1012.2 729.07"/>
            <polygon class="cls-22" points="998.48 718 988.8 718 986.48 708.4 996.16 708.4 998.48 718"/>
          </g>
        </g>
      </g>
      <g>
        <path class="cls-13" d="m467.42,923.74h-73.16c-9.76,0-19.42-7.91-21.58-17.67l-55.05-248.53c-2.16-9.76,4-17.67,13.75-17.67h73.16c9.76,0,19.42,7.91,21.58,17.67l55.05,248.53c2.16,9.76-4,17.67-13.75,17.67Z"/>
        <rect class="cls-21" x="326.15" y="695.76" width="108.49" height=".47"/>
        <rect class="cls-21" x="339.12" y="754.32" width="108.49" height=".47"/>
        <rect class="cls-21" x="352.09" y="812.88" width="108.49" height=".47"/>
        <path class="cls-1" d="m392.52,678.49c.14-1.26-5.47-22.8-5.47-22.8l19.89,16.11-9.77-.35-4.65,7.04Z"/>
        <path class="cls-14" d="m443.93,859.79h-38.53l3.68,16.6,4.84,21.88h38.53l-8.52-38.48Zm-28.29,36.34l-.44-1.99-3.93-17.75-3.2-14.46h34.14l.44,2,7.13,32.2h-34.14Z"/>
        <polygon class="cls-19" points="424.77 876.39 388.43 876.39 380.38 840.05 416.72 840.05 424.77 876.39"/>
        <rect class="cls-19" x="405.9" y="877.48" width="46.05" height="3.1" transform="translate(-528.2 677.57) rotate(-52.1)"/>
        <g>
          <path class="cls-14" d="m343.6,678.49c.14-1.26-5.47-22.8-5.47-22.8l19.89,16.11-9.77-.35-4.65,7.04Z"/>
          <g>
            <polygon class="cls-14" points="351.3 721.18 348.37 721.18 347.22 715.95 367.09 715.95 368.2 720.97 365.27 720.97 364.81 718.88 350.79 718.88 351.3 721.18"/>
            <polygon class="cls-14" points="362.6 733.94 359.67 733.94 356.01 717.41 358.94 717.41 362.6 733.94"/>
            <polygon class="cls-14" points="365.24 734.99 357.5 734.99 356.85 732.06 364.59 732.06 365.24 734.99"/>
          </g>
          <polygon class="cls-14" points="404.88 736.81 402.23 734.91 416.19 712.94 418.84 714.85 404.88 736.81"/>
          <g>
            <path class="cls-14" d="m379.22,777.86c-1.24-5.59-6.8-10.13-12.39-10.13s-9.13,4.54-7.89,10.13c1.24,5.59,6.8,10.14,12.39,10.14,2.33,0,4.31-.79,5.73-2.14.59-.53,1.09-1.18,1.47-1.9.9-1.7,1.2-3.81.69-6.1Zm-8.49,7.46c-4.11,0-8.2-3.34-9.11-7.46-.91-4.11,1.69-7.46,5.81-7.46s8.2,3.35,9.11,7.46c.91,4.12-1.69,7.46-5.81,7.46Z"/>
            <path class="cls-14" d="m390.62,796.8c-.35,0-.73-.14-1.05-.41l-13.48-11.35c-.63-.53-.81-1.38-.39-1.89.42-.51,1.27-.5,1.9.03l13.48,11.35c.63.53.8,1.38.39,1.89-.2.25-.51.38-.85.38Z"/>
          </g>
          <polygon class="cls-14" points="419.82 766.8 424.84 775.98 434.49 775.98 427.94 781.66 432.96 790.84 423.89 785.17 417.33 790.84 418.28 781.66 409.21 775.98 418.87 775.98 419.82 766.8"/>
        </g>
      </g>
      <g>
        <path class="cls-5" d="m1352.52,686.4s.26,14.47-1.91,14.2c-2.17-.27-5.12-12.13-5.14-11.95-.02.18.98,12.48-1.75,13.09-2.73.61-5.5-13.02-5.5-13.02,0,0,1.83,11.7-.09,12.01-1.92.31-4.94-11.04-5.73-11.07-.79-.03,2.54,9.73.21,10.23-2.34.5-7.56-13.23-5.79-14.98,1.77-1.75,4.52.12,4.52.12,0,0,3.4-2.52,6.01-1.09,0,0,6.13-1.22,7.97,1.49,0,0,3.82-3.29,7.2.98Z"/>
        <g>
          <path class="cls-14" d="m1392.02,630.97l49.65,179.01c2.12,7.66-2.72,13.87-10.82,13.87h-335.11c-8.1,0-16.39-6.21-18.52-13.87l-49.65-179.01c-2.12-7.66,2.72-13.87,10.82-13.87h335.11c8.1,0,16.39,6.21,18.52,13.87Z"/>
          <g>
            <polygon class="cls-22" points="1131.4 711.73 1088.12 711.73 1076.12 668.45 1119.4 668.45 1131.4 711.73"/>
            <polygon class="cls-13" points="1117.86 701.13 1095.78 701.13 1089.66 679.05 1111.74 679.05 1117.86 701.13"/>
            <rect class="cls-18" x="1077.06" y="688.39" width="53.4" height="3.4" transform="translate(-102.1 1180.4) rotate(-54.14)"/>
            <polygon class="cls-11" points="1100.6 688.27 1057.32 688.27 1045.32 644.99 1088.6 644.99 1100.6 688.27"/>
          </g>
          <g>
            <polygon class="cls-12" points="1125.18 762.8 1090.39 762.8 1080.74 728 1115.53 728 1125.18 762.8"/>
            <polygon class="cls-19" points="1159.65 762.8 1124.86 762.8 1115.21 728 1150.01 728 1159.65 762.8"/>
            <polygon class="cls-11" points="1194.45 762.8 1159.65 762.8 1150.01 728 1184.8 728 1194.45 762.8"/>
            <polygon class="cls-19" points="1229.24 762.8 1194.45 762.8 1184.8 728 1219.59 728 1229.24 762.8"/>
            <polygon class="cls-17" points="1264.04 762.8 1229.24 762.8 1219.59 728 1254.39 728 1264.04 762.8"/>
            <polygon class="cls-22" points="1298.83 762.8 1264.04 762.8 1254.39 728 1289.18 728 1298.83 762.8"/>
            <polygon class="cls-8" points="1333.62 762.8 1298.83 762.8 1289.18 728 1323.97 728 1333.62 762.8"/>
            <polygon class="cls-13" points="1368.42 762.8 1333.62 762.8 1323.97 728 1358.77 728 1368.42 762.8"/>
            <polygon class="cls-22" points="1134.83 797.59 1100.04 797.59 1090.39 762.8 1125.18 762.8 1134.83 797.59"/>
            <polygon class="cls-11" points="1169.3 797.59 1134.51 797.59 1124.86 762.8 1159.65 762.8 1169.3 797.59"/>
            <polygon class="cls-22" points="1204.1 797.59 1169.3 797.59 1159.65 762.8 1194.45 762.8 1204.1 797.59"/>
            <polygon class="cls-11" points="1238.89 797.59 1204.1 797.59 1194.45 762.8 1229.24 762.8 1238.89 797.59"/>
          </g>
          <path class="cls-11" d="m1370.12,659.92h-182.26c-2.5,0-5.12-2.05-5.82-4.55h0c-.7-2.5.79-4.55,3.29-4.55h182.26c2.5,0,5.12,2.05,5.82,4.55h0c.7,2.5-.79,4.55-3.29,4.55Z"/>
          <path class="cls-19" d="m1376.5,682.91h-182.26c-2.5,0-5.12-2.05-5.82-4.55h0c-.69-2.5.79-4.55,3.29-4.55h182.26c2.5,0,5.12,2.05,5.82,4.55h0c.69,2.5-.79,4.55-3.29,4.55Z"/>
          <path class="cls-22" d="m1382.88,705.91h-182.26c-2.5,0-5.12-2.05-5.82-4.55h0c-.7-2.5.79-4.55,3.29-4.55h182.26c2.5,0,5.12,2.05,5.82,4.55h0c.69,2.5-.79,4.55-3.29,4.55Z"/>
          <g>
            <path class="cls-13" d="m1170.08,660.31l-3.43-3.47-.53-.53c.4-.12.75-.29,1.05-.52.62-.43,1-1.08,1.02-1.95.02-.37-.03-.79-.16-1.25-.66-2.38-2.78-3.93-5.66-3.93h-5.49l3.41,12.31h2.17l-1.19-4.29h2.67l1.89,1.91,2.36,2.38h2.55l-.66-.66Zm-6.18-5.54h-3.16l-1.15-4.14h3.15c1.6,0,2.75.72,3.11,2.04.36,1.29-.4,2.1-1.95,2.1Z"/>
            <path class="cls-13" d="m1174.53,677.34h-5.24l.52,1.88h3.15l.64,2.31c-.6.56-1.56.93-2.72.93-1.99,0-3.79-1.17-4.79-2.93-.26-.45-.47-.95-.61-1.47-.51-1.82.05-3.41,1.35-4.05h0c.41-.22.89-.33,1.43-.33,1.56,0,2.63.51,3.81,1.32l.92-1.63c-1.57-1.08-3.05-1.67-5.2-1.67-.2,0-.39,0-.58.02-3.32.29-4.91,3.08-4,6.34.45,1.64,1.37,3.09,2.6,4.2,1.49,1.34,3.44,2.17,5.55,2.17s3.68-.88,4.6-1.92l-1.43-5.17Z"/>
            <path class="cls-13" d="m1182.82,705.23c-.47-1.71-1.71-2.54-3.28-3.03.78-.47,1.4-1.27.99-2.74-.23-.86-.7-1.53-1.4-2.08-.9-.7-2.11-1.09-3.52-1.09h-5.52l3.41,12.31h5.7c2.75,0,4.23-1.18,3.62-3.37Zm-10.07-7.02h3.11c1.39,0,2.33.6,2.6,1.56.32,1.16-.46,1.71-1.85,1.71h-2.95l-.91-3.27Zm5.94,8.48h-3.59l-.94-3.38h3.43c1.71,0,2.71.61,2.99,1.65.32,1.15-.42,1.73-1.89,1.73Z"/>
          </g>
        </g>
      </g>
      <g>
        <g>
          <path class="cls-9" d="m697.45,652.71c-.97,1.11-1.09,2.34-.61,3.66,0,0,0,.01,0,.02.88,2.44,3.8,5.17,7.19,7.89.43.35.82.67,1.15.96.09.08.18.15.26.23.07.06.13.12.2.18,3.16,2.91,1.97,3.58,7.65,9.5,6.48,6.74,10.94,6.86,12.2,6.25,1.07-.52-1.11-4.1-3.52-8.11-.12-.19-.23-.39-.35-.59-.32-.53-.64-1.08-.96-1.61-2.83-4.83-2.1-7.1-1.43-14.3.54-5.85,9.09-32.66,9.09-32.66l-12.41-2.14s-3.74,21.35-7.86,24.64c-2.2,1.75-4.67,1.77-6.78,3.07-.15.09-.3.18-.44.28-1.2.8-2.43,1.62-3.4,2.73Z"/>
          <path class="cls-1" d="m697.45,652.71c-.97,1.11-1.09,2.34-.61,3.66,0,0,0,.01,0,.02,1.08,2.44,3.93,5.15,7.2,7.87.43.36.81.68,1.14.99.09.08.18.15.26.23.07.06.13.12.2.18,3.16,2.91,1.97,3.58,7.65,9.5,6.48,6.74,10.94,6.86,12.2,6.25,1.07-.52-1.11-4.1-3.52-8.11-1.26-.46-7.12-2.84-11.54-8.51-3.76-4.8-6.31-10.91-8.87-14.66-.28-.05-.45-.08-.73-.14-1.2.8-2.43,1.62-3.4,2.73Z"/>
          <path class="cls-9" d="m797.53,644.95c.77,3.83,6.23,3.19,12.33,1.7,6.1-1.49,4.65.28,13.33-.68,8.68-.96,11.31-4.2,11.58-5.49.24-1.15-4.05-1.55-8.66-2.08-.58-.06-1.16-.14-1.74-.21-5.2-.65-9-4-13.72-6.76-4.47-2.61-11.14-13.23-11.14-13.23l-11.91.94s6.25,9.49,8.67,13.62c1.42,2.43,1.35,5.64,1.17,8.11-.09,1.35-.18,2.72.09,4.07Z"/>
          <path class="cls-1" d="m809.86,646.65c6.1-1.49,4.65.28,13.33-.68,8.68-.96,11.31-4.2,11.58-5.49.24-1.15-4.05-1.55-8.66-2.08l-.04.09s-5.21,3.69-12.44,3.87c-5.89.14-12.13-1.54-16.2-1.48-.09,1.35-.18,2.72.09,4.07.77,3.83,6.23,3.19,12.33,1.7Z"/>
          <path class="cls-17" d="m751.89,568.81l-11.13,29.95-14.53,39.11s-3.94.38-7.72-.71c-3.48-1-7.47-3.63-7.47-3.63,0,0,4.04-41.99,11.56-66.1,1.93-6.19,4.09-11.19,6.48-14.01,11.67-13.79,22.81,15.39,22.81,15.39Z"/>
          <path class="cls-19" d="m740.58,521.24c-6.34-2.04-22.87-.03-40.8,3.21-4.96.9-9.95-1.37-12.56-5.67h0l-45.13-3.52s-14.89,33.03-6.74,54.07c1.2,3.09,3.83,5.02,7.89,5.09,0,0,0,0,0,0,0,0,27.27.04,35.99.04,22.44,0,47.5-15.43,50.74-16.08,5.31-1.06,7.43,9.55,12.73,20.69,5.31,11.14,49.87,49.34,49.87,49.34,0,0,6.85.07,9.68-.99,3.04-1.14,4.16-2.62,4.16-2.62,0,0-49.38-98.24-65.83-103.55Z"/>
          <path class="cls-3" d="m682.42,386.25c-3.35-1.99-6.62-2.3-8.62-2.24-1.39.04-2.79-.05-4.16-.25-17.23-2.53-27.6,22.49-28.21,30.05-1.11,13.88-8.46,16-18.79,24.69-17.86,15.03-15.81,32.15-7.65,41.4,1.31,1.48,2.77,2.76,4.33,3.8,3.96,2.63,9.67,2.2,13.76,1.38,2.93-.59,5.03-1.38,5.03-1.38.05,0,.6-.29,1.55-.8.62-.34,1.42-.77,2.36-1.29.44-.24.9-.5,1.4-.77,8.14-4.5,24.04-13.4,36.17-20.14,2.15-1.19,4.18-2.32,6.03-3.34.46-.25.9-.49,1.33-.73,3.67-.52,6.34-2.38,8.19-5.18,10.35-15.59-4.51-60.31-12.72-65.2Z"/>
          <path class="cls-9" d="m673.48,449.1c.07.05-7.91,2.77-13.24.41-5.02-2.22-8.82-10.47-8.75-10.48,2.28-.11,4.79-2.1,6.72-15.2l.97.35,16.35,5.88s-1.18,5.24-1.95,10.24c-.64,4.19-.99,8.21-.1,8.8Z"/>
          <path class="cls-10" d="m675.53,430.06s-.65,2.83-1.6,8.12c-9.39-1.69-13.42-8.92-14.74-14l16.35,5.88Z"/>
          <path class="cls-9" d="m677.96,435.27s-22.36-3-20.28-16.9c2.08-13.9.6-23.64,14.97-22.32,14.37,1.33,16.34,7.05,16.77,11.85.43,4.81-5.59,27.78-11.46,27.36Z"/>
          <path class="cls-3" d="m688.61,400.29s-14.31,12.34-24.05,13.33c-9.74.99-13.42-2.13-13.42-2.13,0,0,5.74-4.77,9.19-12.46,1.02-2.27,3.17-3.82,5.64-4.04,6.95-.6,20.13-.87,22.64,5.29Z"/>
          <path class="cls-3" d="m679.66,399.18s4.79,4.63,6.3,8.07c1.46,3.31,1.89,11.24.73,14.39,0,0,7.46-14.51,3.24-21.56-4.48-7.48-10.27-.9-10.27-.9Z"/>
          <path class="cls-22" d="m692.31,482.04c-.68,45.27-.19,35.81-5.14,40.1-1.19,1.03-4.55,1.65-8.96,1.94-13.88.92-38.28-1.37-39.21-3.93-3.2-8.88-.94-11.63-3.61-25.22-.28-1.45-.62-3.01-1.03-4.71-2.23-9.33-4.39-12.51,3.51-27.5,7.17-13.58,14.61-24.61,15.28-24.21,18.91,11.22,20.43,1.79,20.43,1.79,0,0,19.06,19.66,18.73,41.74Z"/>
          <path class="cls-19" d="m740.76,598.77l-14.53,39.11s-3.94.38-7.72-.71c-3.48-1-7.47-3.63-7.47-3.63,0,0,4.04-41.99,11.56-66.1l18.16,31.33Z"/>
          <path class="cls-22" d="m673.58,440.3s19.45,3.3,21.74,11.67,9.8,59.21,9.8,59.21c0,0-5.49,5.36-10.05.79-4.57-4.57-14.38-47.56-14.38-47.56l-7.11-24.11Z"/>
          <path class="cls-8" d="m678.21,524.09c-13.88.92-38.28-1.37-39.21-3.93-3.2-8.88-.94-11.63-3.61-25.22l6.7-18.85s-1.11,20.99,5.08,26.52c6.18,5.52,25.35,10.66,28.36,15.27,1.45,2.21,2.41,4.43,2.68,6.22Z"/>
          <path class="cls-9" d="m662.31,515.26s13.69-3.05,15.9-1.83c2.21,1.21,7.61,5.64,8.29,7.18.68,1.54-4.92-1.17-6.74-1.66-1.18-.32-4.28.76-5.82,1.27-6.46,2.15-10.42,1.05-10.42,1.05l-1.21-6.01Z"/>
          <path class="cls-22" d="m653.13,438.5s-18.39,1.13-24.75,10.01c-8.96,12.5-26.74,65.76-16.55,72.86,11.47,8,52.21,2.09,52.21,2.09,0,0,1.36-6.34-.53-9.4-1.89-3.07-32.54-8.02-33.96-9.43-1.42-1.41,17.68-27.59,17.68-31.83s5.89-34.3,5.89-34.3Z"/>
          <path class="cls-9" d="m678.87,517.24s2.87,3.7,3.81,4.14c.94.44,1.55.33,1.55.33l-1.93-3.48-3.42-.99Z"/>
          <path class="cls-9" d="m678.21,513.43l8.34,4.05s-.36.58-1.38.53c-1.03-.05-3.62-.99-3.62-.99l-3.34-3.59Z"/>
        </g>
        <g>
          <polygon class="cls-7" points="749.45 522.95 662.31 522.95 662.31 524.87 748.67 524.87 749.45 522.95"/>
          <polygon class="cls-7" points="682.68 524.87 748.67 524.87 768.52 475.51 702.64 475.51 682.68 524.87"/>
          <path class="cls-1" d="m732.01,500.19c.5-1.74-.5-3.14-2.24-3.14s-3.54,1.41-4.04,3.14c-.5,1.74.5,3.14,2.24,3.14s3.55-1.41,4.04-3.14Z"/>
        </g>
      </g>
      <rect class="cls-1" x="721.44" y="828.08" width="8.97" height="8.97" transform="translate(724.82 -272.03) rotate(41.03)"/>
      <g>
        <path class="cls-8" d="m638.93,945.88c-1.35-4.48-2.02-4.89-2.02-4.89,0,0-41.96,5.23-49.08,4.77-4.22-.27-54.62-17.08-54.62-17.08l-30.59,29.34s75.88,12.5,86.57,11.68c17.67-1.35,44.65-16.95,44.65-16.95,0,0,6.15-3.35,5.09-6.87Z"/>
        <path class="cls-13" d="m524.25,1280.8s.59,14.22,3.32,17.67l37.98.22c-.27-1.47-.42-4.86-5.68-5.77-6.64-1.15-14.43-5.78-18.45-14.56-4.23-9.23-17.17,2.44-17.17,2.44Z"/>
        <path class="cls-13" d="m449.72,1278.76s-2.65,18.89.95,19.22c.48.04,15.31.28,21.73.39,7.55.13,19.96-.14,19.96-.14,1.56.06,2.58-1.63,1.79-2.97-.87-1.47-2.53-3.05-5.71-3.66-6.61-1.27-17.64-6.13-21.5-14.97-4.07-9.3-17.21,2.13-17.21,2.13Z"/>
        <path class="cls-17" d="m544,1085.19s-10.56,36.95-40.83,101.13c-30.27,64.17-31.58,95.1-31.58,95.1,0,0-4.58,1.62-10.66.97-6.58-.7-11.22-3.64-11.22-3.64,0,0,1.96-76.38,16.26-108.77,14.3-32.38,17.21-121,17.21-121l60.82,36.21Z"/>
        <path class="cls-19" d="m560.95,1053.39s.84,57.22-9.06,127.48c-9.9,70.26-5.27,102.93-5.27,102.93,0,0-2.62,1.91-10.7,1.88-9.45-.04-14.29-3.94-14.29-3.94,0,0-14.17-70.29-10.11-105.45,4.06-35.17-19.4-120.67-19.4-120.67l68.83-2.23Z"/>
        <path class="cls-9" d="m537.96,910.76c-.1,4.49-.7,9.38-2.5,11.77l-10.08,5.29-11.17-8.28s4.09-9.08,3.09-22.35c-.1-.8-.5-5.89-.5-5.99l5.59,2.79,15.16,7.58s0,.3.1.7c.1,1.5.3,4.79.3,8.48Z"/>
        <path class="cls-22" d="m482.13,1060.46c3.66,16.72,81.92,9.38,80.9-.83-.04-.34-.24-5.07-.53-11.44-.59-13.78-1.5-35.31-1.61-36.99,0-.03,0-.06,0-.09-1.41-14.22-2.76-28.12-2.85-37.2-.08-7.88-1.17-15.93-2.61-23.24-1.33-6.75-2.97-12.87-4.39-17.65-1-3.36-2.87-6.32-5.34-8.64-1.76-1.65-3.82-2.99-6.1-3.89-.62-.26-1.25-.48-1.9-.66-9.21-2.67-18.5-6.08-21.95-5.07-9.35,2.75-19.76,19.32-24.68,40.31-9.21,39.29-11.34,94.47-8.95,105.38Z"/>
        <path class="cls-10" d="m537.96,910.76c-5.69-2.29-16.56-7.48-19.56-13.37-1.3-2.59.7-3.39,3.99-3.39l15.16,7.58s0,.3.1.7c.1,1.5.3,4.79.3,8.48Z"/>
        <path class="cls-9" d="m544.86,900.64s-27.24,8.5-32.27-8.55c-5.03-17.04-11.93-27.42,5.24-33.57,17.18-6.15,22.49-.64,25.55,4.64,3.06,5.28,8.42,34.83,1.47,37.48Z"/>
        <path class="cls-3" d="m542.32,861.52s-1.74,19.83-5.84,18.97c-4.1-.86-7.82-1.5-7.22,4.48.6,5.98.79,13.16-11.85,14.22s-25.32-31.82-21.84-37.99c10.02-17.81,61.23-21.4,46.75.32Z"/>
        <path class="cls-8" d="m562.51,1048.2c-.59-13.78-1.5-35.31-1.61-36.99,0-.03,0-.06,0-.09l-46.24-27.64s-1.79,64.54,47.86,64.72Z"/>
        <g>
          <g>
            <path class="cls-20" d="m722.02,829.09l8.33,7.25s-14.28,15.29-12.95,31.38l-21.32,18-17.65-15.37,14.76-24.49s15.83-.57,28.83-16.78Z"/>
            <path class="cls-1" d="m700.35,855.25c1.72-1.98,4.72-2.18,6.69-.46,1.98,1.72,2.18,4.72.46,6.69-1.72,1.98-4.72,2.18-6.69.46-1.98-1.72-2.18-4.72-.46-6.69Z"/>
            <rect class="cls-1" x="712.73" y="828.02" width="1.81" height="38.36" transform="translate(731.61 -260.36) rotate(41.04)"/>
          </g>
          <rect class="cls-22" x="673.61" y="877.32" width="23.41" height="5.88" transform="translate(746.11 -233.66) rotate(41.03)"/>
          <path class="cls-20" d="m499.02,1095.23l-.86-.74c-4.64-4.04-5.13-11.08-1.09-15.72l177.48-203.97,17.66,15.37-177.48,203.97c-4.04,4.64-11.08,5.13-15.72,1.09Z"/>
        </g>
        <path class="cls-9" d="m598.89,989.76s3.41-3.03,4.21-5.12c.28-.73,2.6-4.02,6.57-3.72,3.62.27,10.07-7.45,10.07-7.45.94,2.04,4.17,9.7-.46,13.58-3.77,3.16-12.86,8.64-18.37,12.25-5.92,3.87-2.01-9.53-2.01-9.53Z"/>
        <path class="cls-22" d="m599.35,988.63s-45.86,7.8-49.93,5.82c-6.49-3.16,2.52-49.69,2.52-49.69,0,0,.39-10.55-11.93-13.03-10.7-2.16-21.03,5.86-21.03,5.86,0,0-9.39,8.4-8.19,17.73,2.66,20.66,6.8,62.69,20.62,69.13,17.83,8.31,69.41-23.04,69.41-23.04,0,0,1.72-2.1,1.47-6.01-.22-3.45-2.94-6.76-2.94-6.76Z"/>
        <path class="cls-9" d="m640.84,949.21s11.58-4.22,10.55-10.14c-1.02-5.92-4.63-5.17-6.8-3.13-2.18,2.04-.97,12.52-3.75,13.27Z"/>
        <path class="cls-9" d="m602.3,986.73s1.58-4.64,3.26-6.63c1.68-1.99,2.4-5.36,3.16-4.24.77,1.12-.61,5.15,0,6.69.61,1.53-6.43,4.18-6.43,4.18Z"/>
      </g>
      <path class="cls-1" d="m1533.31,1297.67v5.08H2.08c-1.13,0-2.06-.91-2.08-2.04v-.96c0-.86.53-1.6,1.28-1.92.25-.1.52-.16.8-.16h1531.23Z"/>
    </g>
  </g>
</svg>